<svg xmlns="http://www.w3.org/2000/svg" version="1.1" xmlns:xlink="http://www.w3.org/1999/xlink" width="1000" height="1000"><g clip-path="url(#SvgjsClipPath1117)"><rect width="1000" height="1000" fill="#ffffff"></rect><g transform="matrix(1,0,0,1,0,0)"><svg xmlns="http://www.w3.org/2000/svg" version="1.1" xmlns:xlink="http://www.w3.org/1999/xlink" width="1000" height="1000"><svg xmlns="http://www.w3.org/2000/svg" version="1.1" xmlns:xlink="http://www.w3.org/1999/xlink" width="1000" height="1000"><g clip-path="url(#SvgjsClipPath1089)"><rect width="1000" height="1000" fill="#ffffff"></rect><g transform="matrix(4.149377593360996,0,0,4.149377593360996,-5.684341886080802e-14,-5.684341886080802e-14)"><svg xmlns="http://www.w3.org/2000/svg" version="1.1" xmlns:xlink="http://www.w3.org/1999/xlink" width="241" height="241"><svg id="_图层_1" data-name="图层 1" xmlns="http://www.w3.org/2000/svg" viewBox="0 0 241 241">
  <defs>
    <style>
      .cls-1 {
        fill: #f2de07;
      }

      .cls-2 {
        fill: #0340a5;
      }

      .cls-3 {
        fill: transparent;
      }
    </style>
  <clipPath id="SvgjsClipPath1089"><rect width="1000" height="1000" x="0" y="0" rx="500" ry="500"></rect></clipPath><clipPath id="SvgjsClipPath1117"><rect width="1000" height="1000" x="0" y="0" rx="500" ry="500"></rect></clipPath></defs>
  <path class="cls-3" d="M241,0v241H0V0h241ZM153.63,14.4C92.31-6.05,19.85,32.2,6.3,95.8c-3.69,17.3-3.77,37.82,1.64,54.76,2.11,1.48,30.54-1.13,35.44-1.68,13.56-1.54,27.58-4.45,40.01-7,7.56-1.55,14.95-3.85,22.61-4.87l-17.55,6.93c-20.36,5.05-40.7,11.17-58.94,12.25-6.12.36-12.24,2.48-18.49,1.81-.79.77,1.99,7.42,3.65,7.89,36.97-4.27,72.85-13.75,107.33-27.4-17.92,13.3-39.56,23.69-60.46,31.53-10.27,3.85-22.97,8.16-32.62,10.54-1.66.41-3.18,1.26-4.9,1.45,2.92,10.45,17.07,3.5,24.77,1.25,13.59-3.96,29.38-10.19,41.91-16.09,8.61-4.05,16.33-10.75,25.32-14.17-4.6,5.79-11.83,10.38-18.08,14.41-19.27,12.41-40.89,22.14-63.91,24.59-.42,1.68.66,2,1.47,3.02,50.95,63.03,169.99,39.16,194.98-38.06,20.72-64.01-16.86-122.57-76.83-142.56Z"></path>
  <path class="cls-2" d="M153.63,14.4c59.97,20,97.54,78.55,76.83,142.56-24.99,77.22-144.03,101.09-194.98,38.06-.82-1.01-1.89-1.33-1.47-3.02,23.02-2.45,44.64-12.18,63.91-24.59,6.25-4.02,13.49-8.62,18.08-14.41-8.99,3.42-16.71,10.11-25.32,14.17-12.53,5.9-28.33,12.13-41.91,16.09-7.7,2.24-21.85,9.2-24.77-1.25,1.71-.2,3.23-1.04,4.9-1.45,9.65-2.38,22.35-6.69,32.62-10.54,20.9-7.84,42.55-18.22,60.46-31.53-34.48,13.66-70.36,23.13-107.33,27.4-1.66-.47-4.44-7.12-3.65-7.89,6.25.67,12.38-1.45,18.49-1.81,18.24-1.08,38.58-7.2,58.94-12.25l17.55-6.93c-7.66,1.02-15.05,3.32-22.61,4.87-12.43,2.55-26.45,5.46-40.01,7-4.89.56-33.33,3.16-35.44,1.68-5.42-16.94-5.33-37.46-1.64-54.76C19.85,32.2,92.31-6.05,153.63,14.4ZM123.16,32.83c-.93-.57-2.41-7.52-3.66-8.83-3.77,8.54-4.31,10.16-14.5,9.01,5.66,7.31,8.65,6.47,5,16.98,2.24.28,2.82-1.95,4.75-2.73,6.18-2.47,7.7-.08,13.24,1.72-5.48-9.01,1.69-9.38,5-15.98-2.29-.5-8.32.76-9.84-.18ZM89,42.01c-2.52-.38-6.91.78-9.02-.49s-2.25-8.21-4.97-9.51c-.12,1.5-2.71,9.58-3.15,9.86-1.34.87-7.67-.34-9.86.14-.34,4.19,5.99,3.59,6.86,6.7s-2.27,6.21-1.86,9.29c8.64-6.99,9.51-1.11,17.99,0-4.38-7.95-.08-9.89,4-15.98ZM166.1,42.9c-1.09-.92.02-9.93-4.59-9.91-1.32,0-2.27,7.69-3.47,8.55s-6.13.87-8.03,1.47c-.61,3.31,4.15,2.47,4.91,4.63s-1.23,7.87-1.91,10.35c3.21,1.05,7.79-4.6,9.5-4.61,1.98-.01,5.28,5.42,8.5,4.61-1.28-6.6-4.73-11.07,4-13.49-1.56-2.85-7.84-.7-8.9-1.6ZM58,74.01c-2.73-.44-7.76.85-10.02-.49-2.43-1.45-1.43-8.41-4.97-9.52.12,1.65-2.47,9.39-3.17,9.83-1.31.81-7.9-.14-10.33.16-1.98,3.27,6.57,3.6,7.99,6.97.76,1.79-3.15,7.45-2.49,10.03.99,1.07,6.9-4.94,9.49-4.94,2.94,0,5.33,4.14,8.5,3.93-5.27-9.57-1.43-9.75,5-15.98ZM183,105.01c7.28-4.13,27.94-14.5,29.79-22.73,1.62-7.19-3.01-7.33-8.83-5.81-6.76,1.77-26.21,15.62-30.47,15.62-2.42,0-13.4-6.38-10.5-10.09-10.69,2.85-19.98-4.76-31-3-.38,1.66.53,2.03,1.51,2.98,7.07,6.85,20.77,13.93,26.5,20.5.76.87,1.3,1.1.98,2.51-7.26.6-15.63,11.5-21.73,12.82-5.31,1.15-15.87-2.56-21.74-2.85-4.71-.23-6.87.28-2.56,4.57s8.98,6.11,12.68,12.32c3.13,5.25,2.9,11.04,5.86,16.12,5.55-3.83,3.24-15.59,5.79-18.7,3-3.65,22.5-10.03,27.7-13.28,2.06,8.2,3.11,17.63,5.97,25.54.79,2.19,2.33,7.36,5.44,6.4,4.06-1.25,4.62-17.85,6.82-22.21,1.34-2.66,6.81-5.96,6.81-8.22,0-2.67-9.29-8.34-9.03-12.49ZM226,113.5c.62-5.84-.45-12.55,0-18.5l-2.95,12.55c-14.62,45.78-59.87,67.4-101.41,80.62-2.75.88-13.81,1.97-13.39,5.36s12.29,2.68,15.3,2.52c25.34-1.37,46.3-10.7,66.41-23.61,15.27-9.8,34.14-40.87,36.05-58.93ZM45,114.01c-8.96,1.45-11.59-1.64-13.01-10.01-2.88.86-3.02,7.54-4.23,8.76-1.42,1.44-8.51,1.23-10.76,1.25.13,3.03,3.09,2.75,3.63,3.3,4.82,4.93,3.18,6.74,1.38,12.68,1,1.02,7.82-3.52,9.48-3.59,3.5-.15,6.54,4.55,7.02,4.57,3.01.11-1.05-8.27-.4-10.31.52-1.63,6.32-3.97,6.9-6.66ZM228,126.01c-2.99-.52-1.58.8-2.1,2.34-6.29,18.57-16.25,34.06-30.85,47.2-3.99,3.59-7.24,5.01-11.47,7.57-6.57,3.97-13.88,9.47-20.29,13.67-4.18,2.74-12.4,3.43-17.56,5.91-1.59.77-3.9-.56-3.72,1.29,5.29.45,14.4,2.84,19.19.91,14.37-5.81,26.09-11.58,37.31-21.88,10.16-9.33,20.74-24.54,25.27-37.74,2.13-6.22,3-12.84,4.22-19.27ZM82.99,186c-3.33-.66-2.71,5.13-4.98,6.51-1.99,1.21-5.68.2-8.01.5,4.7,4.84,5.76,6.03,4.01,12.99,2.56.18,3.91-3.05,6.52-2.98s3.97,5.05,7.47,3.98c-3.6-7.91-.88-8.35,4-13.98-1.36-.26-6.68.34-6.99-.02-.27-.31.29-2.24-.05-3.19s-2.87-1.28-1.96-3.79ZM106.98,199.02c-2.56-1.48-1.49,2.48-3.54,3.91-1.15.8-3.04.97-4.44,1.07,1.64,3.26,4.41,5.18,2,8.98,3.72-.93,6.28-.92,10,0-2.74-6.85,2.6-5.57,3-6,2.76-2.94-4.03-3.95-4.67-4.36-1.32-.83-2.16-3.51-2.35-3.62ZM134.22,206.84c-.88-.76-.52-5.73-2.72-6.82-1.64.89-1.27,3.71-2.48,4.52-1.92,1.3-5.35-1.22-4.05,3.79.31,1.18,4.99,1.39,2.03,6.66.43.4,8.13-2.46,8.52-2.97.16-.21,1.7-4.86,1.49-5.01-.31-.22-2.14.39-2.78-.17Z"></path>
  <path class="cls-3" d="M183,105.01c-.25,4.14,9.03,9.82,9.03,12.49,0,2.26-5.47,5.57-6.81,8.22-2.2,4.36-2.76,20.96-6.82,22.21-3.12.96-4.65-4.21-5.44-6.4-2.86-7.9-3.92-17.34-5.97-25.54-5.19,3.25-24.69,9.63-27.7,13.28-2.56,3.11-.24,14.87-5.79,18.7-2.96-5.09-2.73-10.88-5.86-16.12-3.7-6.21-8.33-7.99-12.68-12.32s-2.15-4.8,2.56-4.57c5.87.29,16.43,4,21.74,2.85,6.1-1.33,14.47-12.22,21.73-12.82.32-1.41-.22-1.64-.98-2.51-5.74-6.57-19.44-13.65-26.5-20.5-.98-.95-1.89-1.31-1.51-2.98,11.01-1.76,20.3,5.85,31,3-2.9,3.71,8.08,10.09,10.5,10.09,4.26,0,23.7-13.86,30.47-15.62,5.81-1.52,10.45-1.37,8.83,5.81-1.86,8.23-22.51,18.6-29.79,22.73Z"></path>
  <path class="cls-1" d="M226,113.5c-1.91,18.06-20.78,49.13-36.05,58.93-20.11,12.91-41.07,22.24-66.41,23.61-3.01.16-14.87.98-15.3-2.52s10.64-4.48,13.39-5.36c41.55-13.21,86.79-34.84,101.41-80.62l2.95-12.55c-.45,5.95.62,12.66,0,18.5Z"></path>
  <path class="cls-1" d="M228,126.01c-1.22,6.43-2.09,13.05-4.22,19.27-4.52,13.2-15.1,28.41-25.27,37.74-11.22,10.3-22.94,16.07-37.31,21.88-4.8,1.94-13.91-.45-19.19-.91-.17-1.85,2.13-.53,3.72-1.29,5.16-2.48,13.38-3.17,17.56-5.91,6.41-4.19,13.72-9.69,20.29-13.67,4.23-2.56,7.48-3.98,11.47-7.57,14.6-13.14,24.55-28.63,30.85-47.2.52-1.54-.88-2.86,2.1-2.34Z"></path>
  <path class="cls-1" d="M123.16,32.83c1.52.94,7.55-.32,9.84.18-3.31,6.6-10.48,6.97-5,15.98-5.54-1.8-7.06-4.2-13.24-1.72-1.94.78-2.51,3.01-4.75,2.73,3.64-10.51.65-9.67-5-16.98,10.19,1.16,10.73-.47,14.5-9.01,1.25,1.31,2.73,8.25,3.66,8.83Z"></path>
  <path class="cls-1" d="M45,114.01c-.57,2.7-6.37,5.03-6.9,6.66-.65,2.04,3.4,10.42.4,10.31-.48-.02-3.52-4.73-7.02-4.57-1.66.07-8.47,4.61-9.48,3.59,1.8-5.95,3.44-7.75-1.38-12.68-.53-.55-3.5-.27-3.63-3.3,2.26-.01,9.34.19,10.76-1.25,1.2-1.22,1.34-7.9,4.23-8.76,1.42,8.37,4.05,11.46,13.01,10.01Z"></path>
  <path class="cls-1" d="M89,42.01c-4.08,6.09-8.38,8.03-4,15.98-8.48-1.1-9.35-6.98-17.99,0-.41-3.09,2.7-6.29,1.86-9.29s-7.2-2.51-6.86-6.7c2.18-.48,8.52.73,9.86-.14.43-.28,3.03-8.36,3.15-9.86,2.72,1.3,2.86,8.24,4.97,9.51s6.5.11,9.02.49Z"></path>
  <path class="cls-1" d="M58,74.01c-6.43,6.23-10.27,6.41-5,15.98-3.16.21-5.56-3.93-8.5-3.93-2.59,0-8.51,6-9.49,4.94-.66-2.58,3.25-8.24,2.49-10.03-1.42-3.37-9.97-3.7-7.99-6.97,2.43-.3,9.02.65,10.33-.16.71-.44,3.29-8.18,3.17-9.83,3.54,1.11,2.54,8.07,4.97,9.52,2.25,1.35,7.28.05,10.02.49Z"></path>
  <path class="cls-1" d="M166.1,42.9c1.06.9,7.34-1.25,8.9,1.6-8.73,2.42-5.28,6.89-4,13.49-3.22.8-6.52-4.63-8.5-4.61-1.71,0-6.28,5.66-9.5,4.61.69-2.48,2.71-8.09,1.91-10.35s-5.52-1.32-4.91-4.63c1.91-.6,6.78-.57,8.03-1.47s2.16-8.54,3.47-8.55c4.6-.02,3.49,8.99,4.59,9.91Z"></path>
  <path class="cls-1" d="M82.99,186c-.91,2.51,1.62,2.85,1.96,3.79s-.21,2.89.05,3.19c.32.36,5.64-.24,6.99.02-4.88,5.64-7.6,6.07-4,13.98-3.5,1.07-4.8-3.91-7.47-3.98s-3.96,3.16-6.52,2.98c1.76-6.95.69-8.15-4.01-12.99,2.33-.3,6.02.71,8.01-.5,2.27-1.38,1.65-7.17,4.98-6.51Z"></path>
  <path class="cls-1" d="M106.98,199.02c.19.11,1.03,2.79,2.35,3.62.64.41,7.44,1.41,4.67,4.36-.41.43-5.74-.86-3,6-3.72-.93-6.28-.93-10,0,2.41-3.8-.36-5.72-2-8.98,1.4-.1,3.29-.27,4.44-1.07,2.05-1.43.97-5.4,3.54-3.91Z"></path>
  <path class="cls-1" d="M134.22,206.84c.64.56,2.47-.05,2.78.17.21.15-1.33,4.8-1.49,5.01-.38.51-8.08,3.38-8.52,2.97,2.96-5.27-1.72-5.48-2.03-6.66-1.3-5.01,2.13-2.49,4.05-3.79,1.2-.82.83-3.63,2.48-4.52,2.2,1.09,1.85,6.06,2.72,6.82Z"></path>
</svg></svg></g></g></svg></svg></g></g></svg>