<?xml version="1.0" encoding="UTF-8"?>
<svg id="_图层_1" data-name="图层 1" xmlns="http://www.w3.org/2000/svg" viewBox="0 0 992 251">
  <defs>
    <style>
      .cls-1 {
        fill: #fdb203;
      }

      .cls-2 {
        fill: transparent;
      }

      .cls-3 {
        fill: #0340a4;
      }
    </style>
  </defs>
  <path class="cls-2" d="M992,0v251H0V0h992ZM54,196.01c-.45,1.73.72,2,1.49,3,27.9,36.3,91.92,43.94,132.19,27.17,95.81-39.9,88.17-172.35-7.47-205.89C98.79-8.26,16.83,50.06,24.02,137.48c.2,2.39,2.55,15.32,3.46,16.54,1.2,1.61,9.63,1.1,12.07,1.02,16.11-.54,34.78-3.38,50.69-6.31,10.54-1.94,22.26-5.86,32.53-7.48,1.06-.17,3.47-1.06,3.24.74-30.54,10.61-62.64,18.09-94.99,20.02,1.17,8.56,3.63,7.53,11.37,6.87,34.4-2.93,62.93-14.98,94.83-25.17,1-.32,3.19-1.46,3.79-.21-28.95,20.71-63.08,32.52-96.99,42.52,2.9,10.44,17.08,3.51,24.77,1.25,10.69-3.14,22.74-7.55,32.91-12.09,11.9-5.31,22.59-12.61,34.32-18.17-4.69,6.05-11.68,10.3-18.08,14.41-19.31,12.37-40.89,22.09-63.91,24.59ZM428,168h72.5c.16,0,1.72,1.86,2.38-.62.55-2.05,1.74-18.64,1.11-19.38-8.94,1.99-18.38.65-27.53.96-3.94.13-9.11,2.94-12.44-.46,19.86-14.97,47.55-35.28,42.74-63.76-3.01-17.82-24.61-20.15-39.25-18.73-4.64.45-26.08,6.47-27.41,10.67-.97,3.06,3.53,13.92,1.9,18.32,9.66-4.33,26.75-15.24,36.97-7.47,8.81,6.7.14,18.02-4.95,24-11.9,13.99-28.8,25.47-43.1,36.9l-2.93,19.57ZM584.99,91c.11-4.14,4.89-16.18,3.91-19.32-1.69-5.43-24.41-6.07-29.28-5.55-63.47,6.72-71.64,122.12,1.03,103.03,40.16-10.55,40.71-73.09-7.05-66.05l-15.62,5.38c5.91-22.2,27.81-28.46,47-17.49ZM638,168l13.97-100.52c-1.52-2.45-2.1-.48-2.47-.48h-18l-34.49,15.74-1,19.26c1.42,1.48,21.5-9.14,24.99-9.99l-9.99,76h27ZM718,168h23l12.48-102.02-22.51,3.49-.85,1.15-12.12,97.38ZM833.35,90.65c6.96,7.31,22.71,2.42,24.42-7.39,2.09-12-8.02-15.06-18.04-13.03-8.48,1.72-11.93,14.6-6.38,20.42ZM301,141.01c15.25.1,44.54-2.87,47.75-21.74,4.31-25.3-26.13-27.22-43.44-20.45-32.8,12.83-40.76,67.78.3,72.06,9.39.98,31.4-2.51,37.91-9.84,3.5-3.95-.74-10.06.46-15.04-12.92,8.67-41.05,18.86-42.99-4.99ZM714.99,116c1.58-11.19,9.96-15.23-4.94-18.55-32.26-7.19-60.45,16.85-57.04,50.04,1.9,18.49,18.86,24.82,35.47,23.5,4.32-.35,20.5-4.48,23.26-7.24,2.01-2.01-.72-11.36.25-14.74-8.37,3.51-20.82,9.6-29.5,4s-5.78-21.33-1.3-29.31c7.21-12.85,21.48-14.37,33.79-7.7ZM815.88,166.88c.98-5.07-2.43-9.67-2.95-14.31-2.15-19.12,15.7-52.7-15.45-55.56-6.77-.62-19.06,1.48-24.76,3.21-2.67.81-11.93,4.49-12.31,7.23-.23,1.64.6,12.26,2.11,12.55.91.17,13.22-5.89,17.42-6.56,3.2-.51,9.22-1.16,12.03.07,3.21,1.41,4.66,8.2,1.35,9.31-6.29,2.11-15.17,1.71-22.61,4.39-14.05,5.07-22.89,15.6-20.66,31.21.42,2.91,4.38,7.95,6.67,9.6,3.89,2.8,16.52,2.51,21.32,1.52,5.96-1.23,8.98-6.07,12.47-7.54,2.11-.89,2.44,4.51,3.73,5.73,4.61,4.36,16.32,1.4,21.63-.87ZM857,168h24c1.27-12.55,1-28.88,4.7-40.8,2.3-7.39,14.74-19.25,17.08-8.48,2.85,13.13-4.23,35.42-4.78,49.28h24c-.09-5.78.45-11.65,1.12-17.38,1.05-8.93,2.76-32.02,12.82-35.17s9.5,6.48,9.04,14.04c-.75,12.42-4.31,25.9-4.99,38.51h23c-.56-15.86,12.31-54.48,1.02-66.52-9.61-10.26-30.05-1.96-36.54,8.52-1.95.85-2.66-4.74-3.64-6.34-7.33-12.07-25.48-6.32-33.91,1.82-.54.52-3.58,5.95-3.95,3.03-.42-3.3,1.69-7,1.01-10.5l-21.99,2.02-8.01,67.99ZM383,98c-4.3.69-11.44.16-15.32,1.02-.8.18-.26,1.82-2.11,2.06-2.02.26-4.46-.32-6.57-.08.28,17.38-6.72,37.43-4.98,54.49,1.95,19.17,23.36,17.92,35.9,8.93,1.12-.8,4.27-4.39,4.59-4.39,2.32-.05,1.2,7.69,1.5,7.98.74.75,18.1-.57,21.01,0l8-70.01c-2.57.33-5.94-.53-8.32.03-.8.19-.27,1.8-2.12,2.05-3.38.46-11.7-2.22-13.13-.13-.8,1.16-2.04,21.71-2.56,25.43-.97,6.95-1.97,19.84-7.52,24.48s-14.46,5.06-14.44-4.35l6.09-47.51ZM822,168h24c.75-23.5,6-46.64,8-70-3.98-1.8-6.18,1.91-7.44,2.08-5.1.68-10.37-1.88-15.56-1.06l-9.01,68.99Z"/>
  <path class="cls-3" d="M54,196.01c23.02-2.5,44.6-12.22,63.91-24.59,6.4-4.1,13.4-8.36,18.08-14.41-11.73,5.55-22.43,12.85-34.32,18.17-10.17,4.54-22.22,8.95-32.91,12.09-7.68,2.25-21.86,9.19-24.77-1.25,33.91-9.99,68.04-21.81,96.99-42.52-.6-1.25-2.8-.11-3.79.21-31.9,10.18-60.43,22.23-94.83,25.17-7.74.66-10.2,1.7-11.37-6.87,32.35-1.92,64.45-9.41,94.99-20.02.24-1.8-2.17-.91-3.24-.74-10.27,1.62-21.99,5.54-32.53,7.48-15.91,2.93-34.57,5.78-50.69,6.31-2.44.08-10.86.59-12.07-1.02-.91-1.22-3.26-14.15-3.46-16.54C16.83,50.06,98.79-8.26,180.21,20.29c95.64,33.54,103.28,165.99,7.47,205.89-40.27,16.77-104.28,9.12-132.19-27.17-.77-1-1.94-1.27-1.49-3ZM143.16,36.83c-.93-.57-2.41-7.52-3.66-8.83-3.77,8.54-4.31,10.16-14.5,9.01,6.76,6.13,8.27,7.73,5.01,16.99,2.57-.84,7.13-3.84,9.57-3.99,3.28-.19,5.33,2.93,8.42,2.98-4.75-9.72,1.24-8.96,5-15.98-2.29-.5-8.32.76-9.84-.18ZM109,46.01c-2.52-.38-6.91.78-9.02-.49s-2.25-8.21-4.97-9.51c-.12,1.5-2.71,9.58-3.15,9.86-1.34.87-7.67-.34-9.86.14-.34,3.01,3.29,2.85,5.06,4.42,4.27,3.78-.17,7.06-.06,11.58.32.41,6.71-4.62,8.49-4.62,2.45,0,7.59,5.62,8.5,4.62.92-2.59-2.16-6.55-1.8-8.36.38-1.94,6.02-5.2,6.8-7.63ZM186.14,45.87c-.58-.38-2.15-7.72-3.63-8.86-4.24,7.46-3.11,10.48-13.5,9.01,6.69,6.43,8.85,6.48,4,15.98,3.09,1.09,7.77-3.67,9.5-3.67,1.15,0,6.17,3.79,8.49,3.68-3.13-9.49-2.15-9.88,5.01-15.99-2.19-.49-8.52.73-9.86-.14ZM64.99,69c-2.27-2.29-4.15,8.22-5.15,8.83-1.52.94-7.55-.32-9.84.18,6.75,7.03,9.51,5.5,5,15.98.62.63,7.33-3.92,9.5-3.93,2.95,0,5.32,4.14,8.49,3.92-3.65-7.85-1.09-11.07,5-15.98-2.72-.44-7.78.85-10.02-.49s-2.67-8.2-2.99-8.52ZM203,109.01c7.28-4.13,27.94-14.5,29.79-22.73,1.62-7.19-3.01-7.33-8.83-5.81-6.78,1.77-26.19,15.62-30.47,15.62-1.97,0-10.34-5.47-11.08-7.1-.61-1.34,2.24-2.13,1.57-3.99-10.75,5.06-20.57-4.06-31.99-2-.38,1.66.53,2.03,1.51,2.98,7.07,6.85,20.77,13.93,26.5,20.5.76.87,1.3,1.1.98,2.51-7.26.6-15.63,11.5-21.73,12.82-5.12,1.11-16.78-2.49-22.74-2.85-4.23-.25-5.04.67-2.09,4.1,3.76,4.38,9.32,6.25,13.21,12.79,3.05,5.13,3.22,10.99,5.86,16.12,5.55-3.83,3.24-15.59,5.79-18.7,3-3.65,22.5-10.03,27.7-13.28,2.06,8.2,3.11,17.63,5.97,25.54.79,2.19,2.33,7.36,5.44,6.4,4.06-1.25,4.62-17.85,6.82-22.21,1.34-2.66,6.81-5.96,6.81-8.22,0-2.67-9.29-8.34-9.03-12.49ZM246,116.5c.54-5.58-.39-11.84,0-17.5l-5.51,20.99c-10.87,28.08-45.84,52.1-72.81,63.19-14.08,5.79-28.88,9.88-43.69,13.32,9.13,4.73,19.57,3.64,29.38,2.37,32.61-4.23,68.71-25.67,83.81-55.19,3.62-7.08,8.07-19.37,8.82-27.18ZM65,118.01c-8.96,1.45-11.59-1.64-13.01-10.01-2.92.93-3.04,7.95-4.63,9.09-2.24,1.61-7.61.66-10.36.92-.02,3.74,6.92,4.7,7.92,6.12.41.57-2.56,8.26-2.92,9.86,1.24,1,7.7-3.51,9.48-3.58,3.5-.15,6.54,4.56,7.02,4.57,3.01.11-1.05-8.27-.4-10.31.52-1.63,6.32-3.97,6.9-6.66ZM238.64,160.66c3.55-7.35,7.94-18.02,8.4-26.13.06-1.09.65-3.78-1.02-3.52-2.76,11.24-8.53,22.37-15.36,31.64-10.97,14.88-31.1,29.74-47.91,37.63-6.26,2.94-13.29,4.78-19.74,7.22,3.09,2.49,9.44,1.74,13.24,1.25,13.78-1.78,31.41-11.77,40.76-20.14s16.51-17.35,21.63-27.95ZM102.99,190c-2.01-2.02-3.5,5.61-4.98,6.51-1.99,1.21-5.68.2-8.01.5,4.7,4.84,5.76,6.03,4.01,12.99,2.56.18,3.88-3.04,6.5-2.96,2.07.07,6.43,5.06,7.49,3.96-3.59-7.92-.89-8.34,4-13.98-10.25,2.51-7.37-5.37-9.01-7.01ZM126.98,203.02c-2.48-1.56-1.54,2.52-3.54,3.92-1.15.8-3.04.97-4.44,1.07,1.64,3.26,4.41,5.18,2,8.98,2.12-1.68,9.6.32,10,0,.21-.17-.96-3.73-.06-5.35.68-1.23,5.33.15,2.6-3.67-.51-.72-4.38-1.95-5.83-2.97-.85-.6-.64-1.93-.72-1.98ZM154.13,209.88c-.66-.43-.74-4.88-2.65-5.87s-1.38,2.82-2.92,4.09c-1.69,1.4-4.84-.21-3.6,4.24.35,1.24,4.98,1.34,2.03,6.66,3.64-.52,5.05-2.57,8.99-1-.19-1.43-.85-2.53-.58-4.07.45-2.51,3.31-1.05,2.58-3.92-1.11-.15-3.05.41-3.87-.13Z"/>
  <path class="cls-1" d="M584.99,91c-19.19-10.97-41.09-4.71-47,17.49l15.62-5.38c47.76-7.04,47.21,55.5,7.05,66.05-72.67,19.09-64.5-96.32-1.03-103.03,4.87-.51,27.58.12,29.28,5.55.98,3.14-3.8,15.18-3.91,19.32ZM548.79,119.21c-20.9,2.09-20.54,38.54,3.48,33.55,15.07-3.13,18.25-35.73-3.48-33.55Z"/>
  <path class="cls-3" d="M857,168l8.01-67.99,21.99-2.02c.68,3.5-1.43,7.19-1.01,10.5.37,2.92,3.41-2.5,3.95-3.03,8.43-8.14,26.57-13.89,33.91-1.82.97,1.6,1.69,7.19,3.64,6.34,6.49-10.47,26.92-18.77,36.54-8.52,11.29,12.04-1.59,50.67-1.02,66.52h-23c.67-12.61,4.24-26.09,4.99-38.51.46-7.56,1.36-17.3-9.04-14.04s-11.77,26.25-12.82,35.17c-.67,5.73-1.22,11.6-1.12,17.38h-24c.55-13.86,7.63-36.15,4.78-49.28-2.34-10.77-14.78,1.09-17.08,8.48-3.71,11.92-3.43,28.25-4.7,40.8h-24Z"/>
  <path class="cls-1" d="M428,168l2.93-19.57c14.3-11.43,31.19-22.91,43.1-36.9,5.09-5.98,13.77-17.31,4.95-24-10.22-7.77-27.31,3.14-36.97,7.47,1.63-4.39-2.87-15.26-1.9-18.32,1.33-4.2,22.76-10.22,27.41-10.67,14.64-1.42,36.25.91,39.25,18.73,4.81,28.48-22.88,48.79-42.74,63.76,3.33,3.4,8.5.59,12.44.46,9.16-.3,18.59,1.04,27.53-.96.63.74-.56,17.33-1.11,19.38-.66,2.47-2.22.62-2.38.62h-72.5Z"/>
  <path class="cls-3" d="M383,98l-6.09,47.51c-.02,9.41,8.72,9.13,14.44,4.35s6.55-17.53,7.52-24.48c.52-3.72,1.76-24.27,2.56-25.43,1.43-2.09,9.75.6,13.13.13,1.85-.25,1.31-1.87,2.12-2.05,2.38-.55,5.75.31,8.32-.03l-8,70.01c-2.91-.57-20.27.75-21.01,0-.29-.3.82-8.03-1.5-7.98-.32,0-3.47,3.59-4.59,4.39-12.54,8.99-33.95,10.25-35.9-8.93-1.74-17.06,5.27-37.11,4.98-54.49,2.11-.24,4.55.35,6.57.08,1.85-.24,1.31-1.89,2.11-2.06,3.88-.86,11.02-.33,15.32-1.02Z"/>
  <path class="cls-3" d="M301,141.01c1.93,23.86,30.07,13.66,42.99,4.99-1.2,4.97,3.04,11.09-.46,15.04-6.5,7.33-28.52,10.82-37.91,9.84-41.06-4.28-33.1-59.22-.3-72.06,17.31-6.77,47.75-4.85,43.44,20.45-3.22,18.87-32.51,21.84-47.75,21.74ZM303,129c7.96.97,31.44-4.63,23.89-16.39-6.49-10.11-26.17,6.36-23.89,16.39Z"/>
  <path class="cls-3" d="M815.88,166.88c-5.31,2.26-17.01,5.23-21.63.87-1.28-1.21-1.61-6.61-3.73-5.73-3.49,1.47-6.51,6.31-12.47,7.54-4.8.99-17.43,1.28-21.32-1.52-2.3-1.65-6.26-6.69-6.67-9.6-2.23-15.6,6.61-26.14,20.66-31.21,7.43-2.68,16.32-2.28,22.61-4.39,3.3-1.11,1.85-7.9-1.35-9.31-2.81-1.23-8.83-.58-12.03-.07-4.2.67-16.51,6.73-17.42,6.56-1.51-.29-2.34-10.92-2.11-12.55.39-2.74,9.64-6.42,12.31-7.23,5.7-1.73,17.98-3.83,24.76-3.21,31.15,2.86,13.29,36.44,15.45,55.56.52,4.64,3.93,9.23,2.95,14.31ZM792.99,134c-8.07.78-21.65,4.53-21.96,14.6-.26,8.66,8.41,8.71,14.31,5.25,6.48-3.8,7.47-13,7.65-19.84Z"/>
  <path class="cls-1" d="M638,168h-27l9.99-76c-3.49.85-23.57,11.48-24.99,9.99l1-19.26,34.49-15.74h18c.37,0,.94-1.96,2.47.48l-13.97,100.52Z"/>
  <path class="cls-3" d="M714.99,116c-12.31-6.67-26.58-5.15-33.79,7.7-4.48,7.98-7.64,23.53,1.3,29.31s21.13-.49,29.5-4c-.97,3.38,1.76,12.73-.25,14.74-2.76,2.76-18.94,6.9-23.26,7.24-16.62,1.33-33.57-5-35.47-23.5-3.41-33.18,24.78-57.23,57.04-50.04,14.9,3.32,6.52,7.36,4.94,18.55Z"/>
  <polygon class="cls-3" points="718 168 730.12 70.62 730.98 69.48 753.48 65.98 741 168 718 168"/>
  <path class="cls-3" d="M822,168l9.01-68.99c5.19-.81,10.45,1.74,15.56,1.06,1.26-.17,3.45-3.88,7.44-2.08-2.01,23.36-7.26,46.5-8,70h-24Z"/>
  <path class="cls-3" d="M833.35,90.65c-5.55-5.82-2.1-18.71,6.38-20.42,10.02-2.03,20.13,1.03,18.04,13.03-1.71,9.81-17.46,14.7-24.42,7.39Z"/>
  <path class="cls-2" d="M203,109.01c-.25,4.14,9.03,9.82,9.03,12.49,0,2.26-5.47,5.57-6.81,8.22-2.2,4.36-2.76,20.96-6.82,22.21-3.12.96-4.65-4.21-5.44-6.4-2.86-7.9-3.92-17.34-5.97-25.54-5.19,3.25-24.69,9.63-27.7,13.28-2.56,3.11-.24,14.87-5.79,18.7-2.63-5.13-2.8-10.99-5.86-16.12-3.89-6.54-9.45-8.41-13.21-12.79-2.94-3.43-2.14-4.36,2.09-4.1,5.96.36,17.63,3.96,22.74,2.85,6.1-1.33,14.47-12.22,21.73-12.82.32-1.41-.22-1.64-.98-2.51-5.74-6.57-19.44-13.65-26.5-20.5-.98-.95-1.89-1.31-1.51-2.98,11.42-2.06,21.24,7.06,31.99,2,.67,1.87-2.18,2.66-1.57,3.99.74,1.63,9.11,7.1,11.08,7.1,4.28,0,23.69-13.85,30.47-15.62,5.81-1.52,10.45-1.37,8.83,5.81-1.86,8.23-22.51,18.6-29.79,22.73Z"/>
  <path class="cls-1" d="M246,116.5c-.75,7.81-5.2,20.1-8.82,27.18-15.1,29.52-51.2,50.96-83.81,55.19-9.81,1.27-20.25,2.36-29.38-2.37,14.81-3.44,29.6-7.53,43.69-13.32,26.97-11.09,61.94-35.11,72.81-63.19l5.51-20.99c-.39,5.66.54,11.92,0,17.5Z"/>
  <path class="cls-1" d="M238.64,160.66c-5.13,10.6-12.57,19.84-21.63,27.95s-26.97,18.36-40.76,20.14c-3.8.49-10.15,1.24-13.24-1.25,6.45-2.43,13.48-4.28,19.74-7.22,16.82-7.89,36.95-22.75,47.91-37.63,6.83-9.27,12.59-20.4,15.36-31.64,1.68-.27,1.08,2.43,1.02,3.52-.46,8.12-4.84,18.79-8.4,26.13Z"/>
  <path class="cls-1" d="M143.16,36.83c1.52.94,7.55-.32,9.84.18-3.77,7.02-9.75,6.26-5,15.98-3.09-.06-5.14-3.18-8.42-2.98-2.44.14-6.99,3.15-9.57,3.99,3.26-9.26,1.75-10.86-5.01-16.99,10.19,1.16,10.73-.47,14.5-9.01,1.25,1.31,2.73,8.25,3.66,8.83Z"/>
  <path class="cls-1" d="M65,118.01c-.57,2.7-6.37,5.03-6.9,6.66-.65,2.04,3.4,10.42.4,10.31-.48-.02-3.52-4.73-7.02-4.57-1.78.08-8.25,4.58-9.48,3.58.36-1.6,3.33-9.29,2.92-9.86-1-1.42-7.94-2.38-7.92-6.12,2.75-.26,8.12.69,10.36-.92,1.59-1.14,1.71-8.15,4.63-9.09,1.42,8.37,4.05,11.46,13.01,10.01Z"/>
  <path class="cls-1" d="M64.99,69c.32.32.83,7.22,2.99,8.52s7.3.05,10.02.49c-6.09,4.91-8.65,8.13-5,15.98-3.17.21-5.54-3.93-8.49-3.92-2.17,0-8.88,4.56-9.5,3.93,4.5-10.49,1.75-8.96-5-15.98,2.29-.5,8.32.76,9.84-.18,1-.62,2.88-11.13,5.15-8.83Z"/>
  <path class="cls-1" d="M186.14,45.87c1.35.87,7.67-.35,9.86.14-7.16,6.11-8.14,6.5-5.01,15.99-2.32.11-7.34-3.68-8.49-3.68-1.73,0-6.41,4.77-9.5,3.67,4.85-9.5,2.69-9.55-4-15.98,10.4,1.47,9.27-1.55,13.5-9.01,1.48,1.14,3.05,8.48,3.63,8.86Z"/>
  <path class="cls-1" d="M109,46.01c-.78,2.42-6.42,5.69-6.8,7.63-.36,1.81,2.72,5.77,1.8,8.36-.9,1.01-6.05-4.62-8.5-4.62-1.78,0-8.17,5.03-8.49,4.62-.11-4.51,4.33-7.8.06-11.58-1.78-1.57-5.41-1.41-5.06-4.42,2.18-.48,8.52.73,9.86-.14.43-.28,3.03-8.36,3.15-9.86,2.72,1.3,2.86,8.24,4.97,9.51s6.5.11,9.02.49Z"/>
  <path class="cls-1" d="M102.99,190c1.64,1.64-1.24,9.52,9.01,7.01-4.89,5.65-7.6,6.06-4,13.98-1.06,1.11-5.42-3.89-7.49-3.96-2.63-.08-3.94,3.14-6.5,2.96,1.76-6.95.69-8.15-4.01-12.99,2.33-.3,6.02.71,8.01-.5,1.48-.9,2.97-8.53,4.98-6.51Z"/>
  <path class="cls-1" d="M126.98,203.02c.09.06-.12,1.39.72,1.98,1.45,1.02,5.31,2.25,5.83,2.97,2.73,3.83-1.91,2.45-2.6,3.67-.9,1.62.27,5.18.06,5.35-.39.32-7.88-1.68-10,0,2.41-3.8-.36-5.72-2-8.98,1.4-.1,3.29-.27,4.44-1.07,2-1.4,1.06-5.48,3.54-3.92Z"/>
  <path class="cls-1" d="M154.13,209.88c.82.54,2.76-.02,3.87.13.73,2.87-2.13,1.41-2.58,3.92-.27,1.54.39,2.64.58,4.07-3.95-1.57-5.35.48-8.99,1,2.95-5.32-1.68-5.42-2.03-6.66-1.24-4.45,1.9-2.84,3.6-4.24,1.54-1.27.95-5.1,2.92-4.09s1.99,5.44,2.65,5.87Z"/>
  <path class="cls-2" d="M548.79,119.21c21.73-2.18,18.55,30.43,3.48,33.55-24.02,4.99-24.39-31.46-3.48-33.55Z"/>
  <path class="cls-2" d="M303,129c-2.27-10.04,17.4-26.51,23.89-16.39,7.55,11.77-15.93,17.36-23.89,16.39Z"/>
  <path class="cls-2" d="M792.99,134c-.18,6.85-1.16,16.04-7.65,19.84-5.9,3.46-14.58,3.41-14.31-5.25.31-10.06,13.89-13.81,21.96-14.6Z"/>
</svg>